<mxfile host="app.diagrams.net" modified="2023-05-05T00:33:06.283Z" agent="Mozilla/5.0 (Windows NT 10.0; Win64; x64) AppleWebKit/537.36 (KHTML, like Gecko) Chrome/113.0.0.0 Safari/537.36" etag="YIdFtaa7XkPJDfNIxWVS" version="21.2.7" type="device">
  <diagram name="페이지-1" id="dQFBLdYfV-M_6-E4kvuc">
    <mxGraphModel dx="1050" dy="602" grid="1" gridSize="10" guides="1" tooltips="1" connect="1" arrows="1" fold="1" page="1" pageScale="1" pageWidth="827" pageHeight="1169" math="0" shadow="0">
      <root>
        <mxCell id="0" />
        <mxCell id="1" parent="0" />
        <mxCell id="Dm4pJ9S1-G8cg3tAAWVk-1" value="시작" style="ellipse;whiteSpace=wrap;html=1;aspect=fixed;" parent="1" vertex="1">
          <mxGeometry x="20" y="20" width="80" height="80" as="geometry" />
        </mxCell>
        <mxCell id="Dm4pJ9S1-G8cg3tAAWVk-4" value="숫자 네 개를 뽑는다." style="ellipse;whiteSpace=wrap;html=1;" parent="1" vertex="1">
          <mxGeometry y="100" width="120" height="80" as="geometry" />
        </mxCell>
        <mxCell id="UsHmHoHCChLoq2h_K_WC-1" value="시도 횟수를 1 늘린다" style="ellipse;whiteSpace=wrap;html=1;" parent="1" vertex="1">
          <mxGeometry x="605" y="400" width="120" height="80" as="geometry" />
        </mxCell>
        <mxCell id="cUYNMjp_JX1btcP4TyEQ-1" value="대기" style="whiteSpace=wrap;html=1;aspect=fixed;" parent="1" vertex="1">
          <mxGeometry x="20" y="185" width="80" height="80" as="geometry" />
        </mxCell>
        <mxCell id="cUYNMjp_JX1btcP4TyEQ-5" value="답을 제출한다" style="rounded=0;whiteSpace=wrap;html=1;" parent="1" vertex="1">
          <mxGeometry x="390" y="20" width="120" height="60" as="geometry" />
        </mxCell>
        <mxCell id="cUYNMjp_JX1btcP4TyEQ-6" style="edgeStyle=orthogonalEdgeStyle;rounded=0;orthogonalLoop=1;jettySize=auto;html=1;exitX=0.5;exitY=1;exitDx=0;exitDy=0;" parent="1" edge="1">
          <mxGeometry relative="1" as="geometry">
            <mxPoint x="170" y="320" as="sourcePoint" />
            <mxPoint x="170" y="320" as="targetPoint" />
          </mxGeometry>
        </mxCell>
        <mxCell id="cUYNMjp_JX1btcP4TyEQ-7" value="" style="shape=flexArrow;endArrow=classic;html=1;rounded=0;" parent="1" edge="1">
          <mxGeometry width="50" height="50" relative="1" as="geometry">
            <mxPoint x="160" y="220" as="sourcePoint" />
            <mxPoint x="350" y="50" as="targetPoint" />
          </mxGeometry>
        </mxCell>
        <mxCell id="cUYNMjp_JX1btcP4TyEQ-9" value="답이 형식에 맞는지 검사한다." style="html=1;whiteSpace=wrap;aspect=fixed;shape=isoRectangle;" parent="1" vertex="1">
          <mxGeometry x="375" y="90" width="150" height="90" as="geometry" />
        </mxCell>
        <mxCell id="cUYNMjp_JX1btcP4TyEQ-14" value="대기" style="whiteSpace=wrap;html=1;aspect=fixed;" parent="1" vertex="1">
          <mxGeometry x="730" y="400" width="80" height="80" as="geometry" />
        </mxCell>
        <mxCell id="cUYNMjp_JX1btcP4TyEQ-22" value="아니요" style="rounded=0;whiteSpace=wrap;html=1;" parent="1" vertex="1">
          <mxGeometry x="787" y="565" width="40" height="20" as="geometry" />
        </mxCell>
        <mxCell id="cUYNMjp_JX1btcP4TyEQ-23" value="예" style="rounded=0;whiteSpace=wrap;html=1;" parent="1" vertex="1">
          <mxGeometry x="740" y="565" width="40" height="20" as="geometry" />
        </mxCell>
        <mxCell id="cUYNMjp_JX1btcP4TyEQ-26" value="몇 스트라이크 몇 볼인지 표시한다" style="ellipse;whiteSpace=wrap;html=1;" parent="1" vertex="1">
          <mxGeometry x="390" y="390" width="130" height="90" as="geometry" />
        </mxCell>
        <mxCell id="Efu50OC43GIE301M7Ee_-3" value="에러를 표시한다." style="ellipse;whiteSpace=wrap;html=1;aspect=fixed;" parent="1" vertex="1">
          <mxGeometry x="640" y="95" width="80" height="80" as="geometry" />
        </mxCell>
        <mxCell id="Efu50OC43GIE301M7Ee_-4" value="대기" style="whiteSpace=wrap;html=1;aspect=fixed;" parent="1" vertex="1">
          <mxGeometry x="730" y="90" width="80" height="80" as="geometry" />
        </mxCell>
        <mxCell id="Efu50OC43GIE301M7Ee_-5" value="아니요" style="shape=singleArrow;whiteSpace=wrap;html=1;" parent="1" vertex="1">
          <mxGeometry x="525" y="105" width="100" height="60" as="geometry" />
        </mxCell>
        <mxCell id="Efu50OC43GIE301M7Ee_-6" value="홈런인지 검사한다." style="html=1;whiteSpace=wrap;aspect=fixed;shape=isoRectangle;" parent="1" vertex="1">
          <mxGeometry x="375" y="190" width="150" height="90" as="geometry" />
        </mxCell>
        <mxCell id="Efu50OC43GIE301M7Ee_-7" value="예" style="shape=singleArrow;whiteSpace=wrap;html=1;" parent="1" vertex="1">
          <mxGeometry x="525" y="205" width="100" height="60" as="geometry" />
        </mxCell>
        <mxCell id="Efu50OC43GIE301M7Ee_-8" value="홈런이라고 표시한다." style="ellipse;whiteSpace=wrap;html=1;aspect=fixed;" parent="1" vertex="1">
          <mxGeometry x="630" y="205" width="80" height="80" as="geometry" />
        </mxCell>
        <mxCell id="Efu50OC43GIE301M7Ee_-9" value="끝" style="ellipse;whiteSpace=wrap;html=1;aspect=fixed;" parent="1" vertex="1">
          <mxGeometry x="730" y="205" width="80" height="80" as="geometry" />
        </mxCell>
        <mxCell id="Efu50OC43GIE301M7Ee_-10" value="10번 시도했는가?" style="html=1;whiteSpace=wrap;aspect=fixed;shape=isoRectangle;" parent="1" vertex="1">
          <mxGeometry x="375" y="290" width="150" height="90" as="geometry" />
        </mxCell>
        <mxCell id="Efu50OC43GIE301M7Ee_-11" value="예" style="shape=singleArrow;whiteSpace=wrap;html=1;" parent="1" vertex="1">
          <mxGeometry x="520" y="310" width="100" height="60" as="geometry" />
        </mxCell>
        <mxCell id="Efu50OC43GIE301M7Ee_-12" value="졌다고 표시한다." style="ellipse;whiteSpace=wrap;html=1;aspect=fixed;" parent="1" vertex="1">
          <mxGeometry x="630" y="300" width="80" height="80" as="geometry" />
        </mxCell>
        <mxCell id="Efu50OC43GIE301M7Ee_-13" value="끝" style="ellipse;whiteSpace=wrap;html=1;aspect=fixed;" parent="1" vertex="1">
          <mxGeometry x="730" y="300" width="80" height="80" as="geometry" />
        </mxCell>
        <mxCell id="Efu50OC43GIE301M7Ee_-14" style="edgeStyle=orthogonalEdgeStyle;rounded=0;orthogonalLoop=1;jettySize=auto;html=1;exitX=0.5;exitY=1;exitDx=0;exitDy=0;" parent="1" source="cUYNMjp_JX1btcP4TyEQ-23" target="cUYNMjp_JX1btcP4TyEQ-23" edge="1">
          <mxGeometry relative="1" as="geometry" />
        </mxCell>
      </root>
    </mxGraphModel>
  </diagram>
</mxfile>
